<?xml version="1.0" encoding="UTF-8"?><svg id="Layer_1" xmlns="http://www.w3.org/2000/svg" viewBox="0 0 1000 147.73"><defs><style>.cls-1{fill:#595959;}.cls-2{fill:#1789ff;}</style></defs><path class="cls-1" d="M218.08,146.41c0,.39-.12.71-.37.95s-.56.37-.95.37h-26.86c-.29,0-.56-.12-.81-.37-.25-.24-.37-.56-.37-.95l-.13-122.53-67.53,122.97c-.2.59-.59.88-1.17.88h-21.87c-.49,0-.88-.29-1.17-.88,0,0-62.04-122.97-67.33-122.97l-.18,122.53c0,.39-.12.71-.37.95-.25.25-.56.37-.95.37H1.17c-.29,0-.56-.12-.81-.37-.25-.24-.37-.56-.37-.95V2.29c0-.39.12-.71.37-.95.24-.24.51-.37.81-.37l32.08.1c10.89.03,20.89,5.99,26.11,15.54l49.68,91,49.74-91.01c5.22-9.55,15.22-15.5,26.1-15.53l31.88-.09c.39,0,.71.12.95.37.24.25.37.56.37.95v144.12Z"/><path class="cls-1" d="M450.02,2.29c0-.39.12-.71.37-.95.24-.24.56-.37.95-.37h26.86c.29,0,.56.12.81.37.24.25.37.56.37.95v144.26c0,.29-.12.56-.37.81-.24.25-.51.37-.81.37h-28.26c-10.79,0-21.2-4.01-29.21-11.24l-121.72-103.71v113.78c0,.29-.12.56-.37.81-.25.25-.56.37-.95.37h-26.86c-.29,0-.56-.12-.81-.37-.25-.24-.37-.51-.37-.81V2.29c0-.39.12-.71.37-.95.24-.24.51-.37.81-.37h27.39c11.03,0,21.65,4.18,29.72,11.71,32.66,30.48,122.09,103.39,122.09,103.39V2.29Z"/><path class="cls-1" d="M551.62,60.76h158.06c.39,0,.71.12.95.37.24.25.37.56.37.95v22.6c0,.39-.12.71-.37.95s-.56.37-.95.37h-158.06v23.04c0,3.43,1.22,6.38,3.67,8.88,2.44,2.5,5.43,3.74,8.95,3.74h166.42c.39,0,.71.12.95.37.24.25.37.51.37.81v22.6c0,.39-.12.71-.37.95s-.56.37-.95.37h-166.42c-11.64,0-21.55-4.08-29.72-12.25-8.17-8.17-12.25-18.08-12.25-29.72v-62.81c0-11.64,4.08-21.55,12.25-29.72,8.17-8.17,18.07-12.25,29.72-12.25h166.42c.39,0,.71.12.95.37.24.25.37.56.37.95v22.6c0,.29-.12.57-.37.81-.25.25-.56.37-.95.37h-166.42c-3.52,0-6.51,1.25-8.95,3.74-2.45,2.49-3.67,5.46-3.67,8.88v23.04Z"/><path class="cls-1" d="M904.91,73.38l35.37,43.59c2.74,3.03,6.02,4.55,9.83,4.55h48.72c.29,0,.56.12.81.37.24.25.37.56.37.95v22.6c0,.39-.12.71-.37.95-.24.25-.51.37-.81.37h-51.21c-11.35,0-21.13-4.65-29.35-13.94l-30.82-38.01-17.46-21.43-35.37-43.59c-2.74-3.13-5.97-4.7-9.69-4.7h-48.86c-.29,0-.56-.12-.81-.37-.25-.24-.37-.51-.37-.81V1.17c0-.29.12-.56.37-.81.24-.24.51-.37.81-.37h51.21c11.35,0,21.13,4.65,29.35,13.94l30.82,38.01,17.46,21.43Z"/><path class="cls-2" d="M887.44,51.95l30.82-38.01C926.48,4.65,936.26,0,947.61,0h51.21c.29,0,.56.12.81.37.25.25.37.51.37.81v22.75c0,.29-.12.57-.37.81-.24.25-.51.37-.81.37h-48.86c-3.72,0-6.95,1.57-9.69,4.7l-35.37,43.59-17.46,21.43-30.82,38.01c-8.22,9.29-18,13.94-29.35,13.94h-51.21c-.29,0-.56-.12-.81-.37-.24-.24-.37-.56-.37-.95v-22.6c0-.39.12-.71.37-.95.24-.24.51-.37.81-.37h48.72c3.82,0,7.1-1.52,9.83-4.55l35.37-43.59,17.46-21.43Z"/></svg>