<?xml version="1.0" encoding="UTF-8"?><svg id="Layer_1" xmlns="http://www.w3.org/2000/svg" viewBox="0 0 1920 1080"><defs><style>.cls-1,.cls-2{fill:#595959;}.cls-3{fill:#595959;}.cls-2{font-family:InstrumentSans-Bold, 'Instrument Sans';font-size:47px;font-weight:700;}.cls-4{fill:#1788ff;}</style></defs><path class="cls-3" d="M677.98,562.65c0,.39-.12.71-.37.95s-.56.37-.95.37h-26.85c-.29,0-.56-.12-.81-.37-.25-.24-.37-.56-.37-.95l-.13-122.47-67.5,122.91c-.2.59-.59.88-1.17.88h-21.86c-.49,0-.88-.29-1.17-.88,0,0-62.01-122.91-67.3-122.91l-.18,122.47c0,.39-.12.71-.37.95-.25.25-.56.37-.95.37h-26.84c-.29,0-.56-.12-.81-.37-.25-.24-.37-.56-.37-.95v-144.05c0-.39.12-.71.37-.95.24-.24.51-.37.81-.37l32.06.09c10.88.03,20.88,5.99,26.1,15.54l49.66,90.95,49.71-90.97c5.22-9.54,15.21-15.49,26.09-15.53l31.87-.09c.39,0,.71.12.95.37.24.25.37.56.37.95v144.05Z"/><path class="cls-1" d="M909.81,418.6c0-.39.12-.71.37-.95.24-.24.56-.37.95-.37h26.84c.29,0,.56.12.81.37.24.25.37.56.37.95v144.2c0,.29-.12.56-.37.81-.24.25-.51.37-.81.37h-28.25c-10.79,0-21.19-4.01-29.2-11.24l-121.67-103.66v113.73c0,.29-.12.56-.37.81-.25.25-.56.37-.95.37h-26.84c-.29,0-.56-.12-.81-.37-.25-.24-.37-.51-.37-.81v-144.2c0-.39.12-.71.37-.95.24-.24.51-.37.81-.37h27.37c11.03,0,21.64,4.18,29.7,11.71,32.65,30.47,122.03,103.34,122.03,103.34v-113.73Z"/><path class="cls-1" d="M1011.36,477.04h157.99c.39,0,.71.12.95.37.24.25.37.56.37.95v22.59c0,.39-.12.71-.37.95s-.56.36-.95.36h-157.99v23.03c0,3.43,1.22,6.38,3.67,8.87,2.44,2.49,5.43,3.74,8.95,3.74h166.35c.39,0,.71.12.95.37.24.25.37.51.37.81v22.59c0,.39-.12.71-.37.95s-.56.37-.95.37h-166.35c-11.64,0-21.54-4.08-29.71-12.25-8.17-8.16-12.25-18.07-12.25-29.71v-62.78c0-11.64,4.08-21.54,12.25-29.71,8.16-8.16,18.07-12.25,29.71-12.25h166.35c.39,0,.71.12.95.37.24.25.37.56.37.95v22.59c0,.29-.12.57-.37.81-.25.25-.56.37-.95.37h-166.35c-3.52,0-6.51,1.25-8.95,3.74-2.45,2.49-3.67,5.45-3.67,8.87v23.03Z"/><path class="cls-1" d="M1364.49,489.66l35.35,43.57c2.74,3.03,6.01,4.55,9.83,4.55h48.69c.29,0,.56.12.81.37.24.25.37.56.37.95v22.59c0,.39-.12.71-.37.95-.24.25-.51.37-.81.37h-51.19c-11.35,0-21.12-4.64-29.34-13.93l-30.8-37.99-17.46-21.42-35.35-43.57c-2.74-3.13-5.97-4.7-9.68-4.7h-48.84c-.29,0-.56-.12-.81-.37-.25-.24-.37-.51-.37-.81v-22.74c0-.29.12-.56.37-.81.24-.24.51-.37.81-.37h51.19c11.34,0,21.12,4.65,29.34,13.94l30.81,37.99,17.46,21.42Z"/><path class="cls-4" d="M1347.03,468.24l30.81-37.99c8.21-9.29,18-13.94,29.34-13.94h51.19c.29,0,.56.12.81.37.25.25.37.51.37.81v22.74c0,.29-.12.57-.37.81-.24.25-.51.37-.81.37h-48.84c-3.72,0-6.94,1.57-9.68,4.7l-35.35,43.57-17.46,21.42-30.8,37.99c-8.21,9.29-17.99,13.93-29.34,13.93h-51.19c-.29,0-.56-.12-.81-.37-.24-.24-.37-.56-.37-.95v-22.59c0-.39.12-.71.37-.95.24-.24.51-.37.81-.37h48.69c3.81,0,7.09-1.52,9.83-4.55l35.35-43.57,17.46-21.42Z"/><text class="cls-2" transform="translate(460 646.88)"><tspan x="0" y="0">Shaping Precision, Engineering what Matters</tspan></text></svg>