<?xml version="1.0" encoding="UTF-8"?><svg id="Layer_1" xmlns="http://www.w3.org/2000/svg" viewBox="0 0 80 80"><defs><style>.cls-1{fill:#ebebeb;}.cls-2{fill:#009d7f;}</style></defs><rect class="cls-1" x="-805.68" y="-232.58" width="1919.44" height="428.22"/><path class="cls-2" d="M59.51,35.12h-14.44l3.7-20.31c.08-.43-.14-.86-.54-1.05-.4-.19-.87-.1-1.16.23l-27.32,31.22c-.26.28-.31.69-.16,1.04.16.35.51.58.89.58h14.42l-3.67,18.34c-.09.43.13.86.51,1.06.15.07.29.11.45.11.26,0,.53-.11.71-.31l27.32-29.27c.26-.28.33-.7.19-1.05-.15-.35-.51-.59-.9-.59h0ZM33.83,62.18l3.23-16.15c.06-.28-.02-.59-.21-.81-.19-.22-.46-.35-.75-.35h-13.46l23.58-26.95-3.27,17.99c-.05.28.03.58.21.8.19.22.45.35.74.35h13.36l-23.44,25.11ZM52.63,76.95c.17.52-.13,1.06-.63,1.22-3.88,1.22-7.91,1.83-12,1.83-12.69,0-24.35-5.82-31.99-15.99C2.77,57.04,0,48.74,0,40c0-11.72,5.02-22.63,13.83-30.24H4.88c-.54,0-.98-.44-.98-.98s.44-.98.98-.98h11.71c.54,0,.98.44.98.98v11.71c0,.54-.44.98-.98.98s-.98-.44-.98-.98v-9.68C6.92,18.08,1.95,28.64,1.95,40c0,8.31,2.63,16.22,7.62,22.84,7.26,9.67,18.35,15.21,30.43,15.21,3.89,0,7.74-.59,11.41-1.75.52-.16,1.06.13,1.22.64h0ZM76.1,71.22c0,.54-.44.98-.98.98h-11.71c-.54,0-.98-.44-.98-.98v-11.71c0-.54.44-.98.98-.98s.98.44.98.98v9.68c8.69-7.27,13.66-17.83,13.66-29.19,0-8.31-2.63-16.22-7.62-22.84C63.17,7.49,52.08,1.95,40,1.95c-3.89,0-7.74.59-11.41,1.75-.52.17-1.06-.13-1.22-.63-.17-.52.13-1.06.63-1.22,3.88-1.23,7.91-1.84,12-1.84,12.69,0,24.35,5.82,31.99,15.99,5.24,6.97,8.01,15.27,8.01,24.01,0,11.72-5.02,22.63-13.83,30.24h8.96c.54,0,.98.44.98.98h0Z"/></svg>