<?xml version="1.0" encoding="UTF-8"?><svg id="Layer_1" xmlns="http://www.w3.org/2000/svg" viewBox="0 0 88.65 80"><defs><style>.cls-1{fill:#ebebeb;}.cls-2{fill:#009d7f;}</style></defs><rect class="cls-1" x="-1316.17" y="-232.58" width="1919.44" height="428.22"/><path class="cls-2" d="M88.65,36.76c0,9.54-7.76,17.3-17.3,17.3h-3.24c-.6,0-1.08-.49-1.08-1.08s.49-1.08,1.08-1.08h3.24c8.34,0,15.14-6.79,15.14-15.14s-6.79-15.14-15.14-15.14c-.62,0-1.2.03-1.75.1-.53.06-1.05-.28-1.18-.81-2.79-11.04-12.7-18.75-24.1-18.75s-21.31,7.71-24.1,18.76c-.13.53-.65.87-1.18.81-.55-.08-1.13-.11-1.75-.11-8.34,0-15.14,6.79-15.14,15.14s6.79,15.14,15.14,15.14h3.24c.6,0,1.08.49,1.08,1.08s-.49,1.08-1.08,1.08h-3.24C7.76,54.05,0,46.29,0,36.76s7.76-17.3,17.3-17.3c.37,0,.73.01,1.08.03C21.71,7.97,32.25,0,44.32,0s22.62,7.97,25.95,19.49c.35-.02.7-.03,1.08-.03,9.54,0,17.3,7.76,17.3,17.3h0ZM61.62,58.38h-7.57v-20.54c0-.6-.49-1.08-1.08-1.08s-1.08.49-1.08,1.08v21.62c0,.6.49,1.08,1.08,1.08h6.24l-14.89,16.74-14.89-16.74h6.24c.6,0,1.08-.49,1.08-1.08v-21.62c0-.6-.49-1.08-1.08-1.08s-1.08.49-1.08,1.08v20.54h-7.57c-.42,0-.81.25-.98.64s-.11.84.19,1.16l17.3,19.46c.19.24.49.37.8.37s.6-.13.81-.37l17.3-19.46c.28-.31.35-.77.19-1.16-.17-.39-.57-.64-1-.64h0Z"/></svg>