<?xml version="1.0" encoding="UTF-8"?><svg id="Layer_1" xmlns="http://www.w3.org/2000/svg" viewBox="0 0 80 80"><defs><style>.cls-1{fill:#ebebeb;}.cls-2{fill:#009d7f;}</style></defs><rect class="cls-1" x="-371.56" y="-232.58" width="1919.44" height="428.22"/><path class="cls-2" d="M27.32,20.49c0-7,5.69-12.68,12.68-12.68s12.68,5.69,12.68,12.68c0,.54-.44.98-.98.98s-.98-.44-.98-.98c0-5.92-4.81-10.73-10.73-10.73s-10.73,4.81-10.73,10.73c0,.54-.44.98-.98.98s-.98-.44-.98-.98ZM79.98,78.85c.05.28-.02.58-.21.8s-.46.35-.75.35H.98c-.29,0-.56-.13-.75-.35-.19-.22-.26-.52-.21-.8L9.77,26.17c.08-.47.49-.8.96-.8h58.54c.47,0,.88.33.96.8l9.76,52.68ZM51.31,60.49l-1.16-15.61h-20.29l-1.16,15.61h22.61ZM28.55,62.44l-1.16,15.61h25.22l-1.16-15.61h-22.9ZM5.4,60.49h21.33l1.16-15.61H8.29l-2.89,15.61ZM50.01,42.93l-1.16-15.61h-17.7l-1.16,15.61h20.02ZM53.27,60.49h21.34l-2.9-15.61h-19.6l1.16,15.61ZM68.46,27.32h-17.65l1.16,15.61h19.39l-2.9-15.61ZM8.65,42.93h19.39l1.16-15.61H11.54l-2.89,15.61ZM2.14,78.05h23.29l1.16-15.61H5.04l-2.9,15.61ZM77.85,78.05l-2.89-15.61h-21.56l1.16,15.61h23.29ZM40,3.9c.54,0,.98-.44.98-.98V.98c0-.54-.44-.98-.98-.98s-.98.44-.98.98v1.95c0,.54.44.98.98.98ZM57.56,21.46h1.95c.54,0,.98-.44.98-.98s-.44-.98-.98-.98h-1.95c-.54,0-.98.44-.98.98s.44.98.98.98ZM20.49,21.46h1.95c.54,0,.98-.44.98-.98s-.44-.98-.98-.98h-1.95c-.54,0-.98.44-.98.98s.44.98.98.98ZM26.89,8.76c.19.19.44.28.69.28s.5-.1.69-.28c.38-.38.38-.99,0-1.38l-1.38-1.39c-.38-.38-.99-.38-1.38,0-.38.38-.38.99,0,1.38l1.36,1.39ZM52.42,9.04c.26,0,.5-.1.69-.28l1.38-1.39c.38-.38.38-.99,0-1.38-.38-.38-.99-.38-1.38,0l-1.38,1.39c-.38.38-.38.99,0,1.38.18.19.43.28.68.28h0Z"/></svg>